<svg id="back" xmlns="http://www.w3.org/2000/svg" width="20" height="20" viewBox="0 0 20 20">
  <defs>
    <style>
      .cls-1 {
        fill: #fff;
        opacity: 0;
      }

      .cls-2 {
        fill: #686e7a;
      }
    </style>
  </defs>
  <rect id="矩形_2257" data-name="矩形 2257" class="cls-1" width="20" height="20"/>
  <path id="back-2" data-name="back" class="cls-2" d="M-1667.214,18.137l-8.093-8.051a.945.945,0,0,1-.279-.671.945.945,0,0,1,.279-.671l8.093-8.051a.957.957,0,0,1,1.349,0,.945.945,0,0,1,0,1.342l-7.418,7.38,7.418,7.38a.945.945,0,0,1,0,1.342.954.954,0,0,1-.675.277A.954.954,0,0,1-1667.214,18.137Z" transform="translate(1679.585 0.586)"/>
</svg>
