<svg id="首页" xmlns="http://www.w3.org/2000/svg" xmlns:xlink="http://www.w3.org/1999/xlink" width="54" height="54" viewBox="0 0 54 54">
  <defs>
    <style>
      .cls-1 {
        opacity: 0;
        fill: url(#linear-gradient);
      }

      .cls-2 {
        fill: #c4c4c4;
      }
    </style>
    <linearGradient id="linear-gradient" x1="0.5" x2="0.5" y2="1" gradientUnits="objectBoundingBox">
      <stop offset="0" stop-color="#ff7858"/>
      <stop offset="1" stop-color="#fe4341"/>
    </linearGradient>
  </defs>
  <rect id="矩形_25" data-name="矩形 25" class="cls-1" width="54" height="54"/>
  <path id="路径_154" data-name="路径 154" class="cls-2" d="M37.513,82.6c-.077,0-.14,0-.184,0H13.772a3.688,3.688,0,0,1-2.97-1.269,4.894,4.894,0,0,1-.928-3.467V63.142H12.4v14.9l-.012.077a2.3,2.3,0,0,0,.327,1.5c.076.089.307.362,1.061.362H37.43l.03,0a2.031,2.031,0,0,0,1.379-.473,2.194,2.194,0,0,0,.5-1.608V63.131h2.522V77.9a4.694,4.694,0,0,1-1.322,3.542A4.432,4.432,0,0,1,37.513,82.6ZM11.135,64.371H7.259a1.264,1.264,0,0,1-1.179-.845,1.344,1.344,0,0,1,.342-1.445l18.61-17.153a1.226,1.226,0,0,1,1.664-.009L45.564,61.938a1.343,1.343,0,0,1,.361,1.43,1.266,1.266,0,0,1-1.151.869l-4.135.123H40.6a1.311,1.311,0,0,1-.035-2.619l.9-.027L25.878,47.651l-15.3,14.1h.555a1.311,1.311,0,0,1,0,2.62ZM21.644,81.3a1.085,1.085,0,0,1-1.064-1.105V70.948a2.71,2.71,0,0,1,.789-1.8c.9-.948,2.422-1.429,4.528-1.429,2.074,0,3.581.488,4.479,1.449a2.83,2.83,0,0,1,.8,1.893v9.1a1.065,1.065,0,1,1-2.128,0V71.072a.817.817,0,0,0-.316-.472,4.385,4.385,0,0,0-2.84-.672c-2.06,0-2.792.538-3.011.769a.71.71,0,0,0-.172.271c0,.009,0,.017-.006.022v9.2A1.085,1.085,0,0,1,21.644,81.3Zm.276-8.808-.355,8.432-9.379-.532-.67-10.4.2-6.794-2.8-.941L25.821,46.334l16.67,15.1L40.8,63.115,40.087,78.26l-.67,2.333-8.828.327-.158-6.1-.552-4.093-1.1-.941-2.167-.368-2.68.246-1.655.246Z" transform="translate(1.002 -35.598)"/>
</svg>
