<svg id="购物车" xmlns="http://www.w3.org/2000/svg" width="54" height="54" viewBox="0 0 54 54">
  <defs>
    <style>
      .cls-1 {
        fill: #d8d8d8;
        opacity: 0;
      }

      .cls-2 {
        fill: #c4c4c4;
      }
    </style>
  </defs>
  <rect id="矩形_24" data-name="矩形 24" class="cls-1" width="54" height="54"/>
  <path id="路径_160" data-name="路径 160" class="cls-2" d="M20.589,65.762a3.807,3.807,0,0,1,1.46.283,3.622,3.622,0,0,1,1.2.788,3.883,3.883,0,0,1,.811,1.192,3.631,3.631,0,0,1,0,2.909,3.827,3.827,0,0,1-2.007,2,3.587,3.587,0,0,1-1.46.3,3.686,3.686,0,0,1-1.5-.3,3.827,3.827,0,0,1-2.007-2,3.631,3.631,0,0,1,0-2.909,3.883,3.883,0,0,1,.811-1.192,3.623,3.623,0,0,1,1.2-.788A3.914,3.914,0,0,1,20.589,65.762Zm16.867.081a3.961,3.961,0,0,1,1.48.283,3.575,3.575,0,0,1,1.216.788,3.883,3.883,0,0,1,.811,1.192,3.631,3.631,0,0,1,0,2.909,3.883,3.883,0,0,1-.811,1.192,3.836,3.836,0,0,1-1.216.808,3.731,3.731,0,0,1-1.48.3,3.587,3.587,0,0,1-1.46-.3,3.827,3.827,0,0,1-2.007-2,3.631,3.631,0,0,1,0-2.909,3.883,3.883,0,0,1,.811-1.192,3.622,3.622,0,0,1,1.2-.788A3.808,3.808,0,0,1,37.456,65.842Zm6.812-22.949a4.149,4.149,0,0,1,1.764.3,2.006,2.006,0,0,1,.892.747,1.693,1.693,0,0,1,.243.949,3.154,3.154,0,0,1-.142.869q-.122.364-.527,1.495t-.872,2.485q-.466,1.354-.933,2.687t-.75,2.1a4.647,4.647,0,0,1-1.318,2.242,3.068,3.068,0,0,1-1.966.626H19.372l.568,3.636H40.416q1.946,0,1.946,1.657a2.48,2.48,0,0,1-.385,1.394,1.7,1.7,0,0,1-1.52.586H19.21a2.4,2.4,0,0,1-1.358-.364,3.071,3.071,0,0,1-.912-.949,5.761,5.761,0,0,1-.588-1.273,11.6,11.6,0,0,1-.345-1.293q-.041-.242-.223-1.172T15.338,57.3l-.588-3.111q-.324-1.717-.649-3.455-.77-4.081-1.743-9.091H9.317a1.646,1.646,0,0,1-1.014-.3,2.641,2.641,0,0,1-.669-.727,2.794,2.794,0,0,1-.365-.909,4.371,4.371,0,0,1-.1-.889,1.768,1.768,0,0,1,.547-1.333,2.048,2.048,0,0,1,1.48-.525h4.1a2.931,2.931,0,0,1,1.3.242,2.2,2.2,0,0,1,.77.606,2.341,2.341,0,0,1,.405.768q.122.4.2.687a9.069,9.069,0,0,1,.162.909q.081.586.162,1.192.122.727.243,1.535ZM41.227,41.6H26.387l5.352-5.333a2.932,2.932,0,0,1,2.048-.949,2.776,2.776,0,0,1,2.048.909Z" transform="translate(-0.168 -27.317)"/>
</svg>
