<svg id="分类" xmlns="http://www.w3.org/2000/svg" width="54" height="54" viewBox="0 0 54 54">
  <defs>
    <style>
      .cls-1 {
        fill: #d8d8d8;
        opacity: 0;
      }

      .cls-2 {
        fill: #c4c4c4;
      }
    </style>
  </defs>
  <rect id="矩形_29" data-name="矩形 29" class="cls-1" width="54" height="54"/>
  <g id="组_126" data-name="组 126" transform="translate(-77.333 -77.333)">
    <path id="路径_155" data-name="路径 155" class="cls-2" d="M85.333,85.333m3.619,0H98q3.619,0,3.619,3.619V98q0,3.619-3.619,3.619H88.952q-3.619,0-3.619-3.619V88.952Q85.333,85.333,88.952,85.333Z"/>
    <path id="路径_156" data-name="路径 156" class="cls-2" d="M85.333,554.667m3.619,0H98q3.619,0,3.619,3.619v9.048q0,3.619-3.619,3.619H88.952q-3.619,0-3.619-3.619v-9.048Q85.333,554.667,88.952,554.667Z" transform="translate(0 -449.429)"/>
    <path id="路径_157" data-name="路径 157" class="cls-2" d="M554.667,85.333m3.619,0h9.048q3.619,0,3.619,3.619V98q0,3.619-3.619,3.619h-9.048q-3.619,0-3.619-3.619V88.952Q554.667,85.333,558.286,85.333Z" transform="translate(-449.429)"/>
    <path id="路径_158" data-name="路径 158" class="cls-2" d="M512,521.048a9.048,9.048,0,1,1,9.048,9.048A9.053,9.053,0,0,1,512,521.048Zm3.619,0a5.429,5.429,0,1,0,5.429-5.429A5.434,5.434,0,0,0,515.619,521.048Z" transform="translate(-408.571 -408.571)"/>
    <path id="路径_159" data-name="路径 159" class="cls-2" d="M811.2,813.756l3.619,3.619a1.809,1.809,0,1,0,2.559-2.559l-3.619-3.619a1.809,1.809,0,1,0-2.559,2.559Z" transform="translate(-694.571 -694.572)"/>
  </g>
</svg>
